/* XPM */
static char *a1f0e66337de4c8eed717a4d6b80de81Epro7Qiv6DhE93qe[] = {
/* columns rows colors chars-per-pixel */
"32 32 83 1 ",
"  c #1D0C02",
". c #240D02",
"X c #2C0E01",
"o c #211001",
"O c #2D1203",
"+ c #331301",
"@ c #3A1502",
"# c #371B02",
"$ c #3E1A04",
"% c #3C1D0D",
"& c #411600",
"* c #441C02",
"= c #491F02",
"- c #421E09",
"; c #452104",
": c #4C2204",
"> c #4B2109",
", c #502403",
"< c #552C0C",
"1 c #582E0D",
"2 c #5A300F",
"3 c #422312",
"4 c #4A2A14",
"5 c #48301F",
"6 c #5D3313",
"7 c #5E371F",
"8 c #5E381A",
"9 c #69340B",
"0 c #613515",
"q c #633917",
"w c #653A19",
"e c #693D1C",
"r c #4C3221",
"t c #553722",
"y c #5E3C22",
"u c #634327",
"i c #6D4323",
"p c #62442B",
"a c #714626",
"s c #714826",
"d c #744B2A",
"f c #7B512D",
"g c #6A4730",
"h c #6E4C33",
"j c #704C37",
"k c #7D5333",
"l c #7F573A",
"z c #7E5B3D",
"x c #775641",
"c c #7E5D43",
"v c #7F5F4E",
"b c #835636",
"n c #835937",
"m c #825738",
"M c #865C3C",
"N c #8A5B39",
"B c #885C39",
"V c #895C39",
"C c #885C3B",
"Z c #885B3D",
"A c #895C3D",
"S c #8C5F3E",
"D c #83613F",
"F c #8A603E",
"G c #8B603E",
"H c #825B42",
"J c #825C43",
"K c #855C41",
"L c #825D44",
"P c #8B5B40",
"I c #885E41",
"U c #895E42",
"Y c #836043",
"T c #866043",
"R c #826147",
"E c #856145",
"W c #8A6141",
"Q c #8D6040",
"! c #8C6344",
"~ c #816049",
"^ c #886249",
"/ c #816351",
"( c #866450",
/* pixels */
"VZxOKKKQSGK+MZHJAAAAA@ZV+VVVed.A",
"NNNNVVAAeVAZPASNAAX::AAAWVAARZVA",
"VNNVAeqVVAsdASAVVZOsAAAAI+GA VVG",
"VNVAAAAVVAAA<VV!Z;ZWVZAAqAupr5cZ",
"Z%4%AAAAfAAA*AEJAAAAA<1AIbZzAAZL",
"VAAAAAAAZcAVo.ZAi6kAAAAAWG+AVVAK",
"AAAAAVA0A@O/ZAAAAAAAAAAAWA4VVAAO",
"AVZZ-AAwAA8ZV~Y:AAnA0AAz4A=AAAAA",
"VVVAZ$AAbAMVNZK+K%%AAAZhAAA0AA-A",
"VVA+jSMAAK*MVVZZtIA$AD.AAAAAVoAG",
"KKvAmAAAVVVn0VZZA1AAiAA0VAAAAAAA",
"rKoxqAAqZZVqAkkdisAk*=:ZVVAAA<6G",
"sAA(qAA6ZZZ7ZAAAAAAAAAGZV0AA+ZkG",
"AA@ZAA6+hXAAAAeZ.VAA2AVA;A:IAAZZ",
"VV@ZAA6AAAAAAAAsVqVAVAAAAAAAAAAA",
"VV+AAG6AGGAAAnVZVAVAAAAAAAAAAAAA",
"VcLZGAG6ZZVVAAAVVAVZ2VNNNVAWAlMZ",
"gg%3kAAZZA6w6AAAVZAZV<NNVAV0IKZZ",
"AAVKAGAAZmAZAAAAVVZVAAyZVAA6XIwA",
"AAGO6GA>ZZVsAVVVVVVAAAZ8AAAAAAAA",
"0AZOVVAAA1VVVAaiVVVAAAA<AAAA2ZAA",
"ZZZZAZZAA1VVZWZVeAAAAAA#TI66AZZA",
"MVVVWOZZZ2Z<VAA+AA^ZAAZVZZ<AAAZV",
"VVVVGZJVV2AZVVAAXXZVVs6AAAAYAAAZ",
"AZeVAAIVVVAVVVVAAAZVVWZAAAAAOOOA",
"ZZA2AAA@AVAAAA*O. .VATA6AAAAVVV:",
"+ZAVA0A@AAAAAAAkKZZ .EA+IAAAVVVW",
"VXXVVVA8AA0AVAAHVAAAA+&AKAAAAAM6",
"VVVALcA,AAAAAZOAAAAAAAAGAADIGG6G",
"NVVVMZ+WAAKmH OAVA1AAAQQQAGAA6VG",
"0VVVVVV>GGMIKZAZZVVAAAAZV<AAyV9S",
"AVkVVVVAMVVVVV4zVVVmKJAGAAVVdAAG"
};
