/* XPM */
static char *_4f18a0c47634444db866b23fe1351ebQYFKuq5AoT2kcEgS[] = {
/* columns rows colors chars-per-pixel */
"32 32 207 2 ",
"   c None",
".  c #000F29",
"X  c #0B132C",
"o  c #190F3C",
"O  c #111332",
"+  c #23143D",
"@  c #072236",
"#  c #070F41",
"$  c #0D1E45",
"%  c #1E134B",
"&  c #29174A",
"*  c #231957",
"=  c #0C2344",
"-  c #1D214D",
";  c #11354C",
":  c #222A4C",
">  c #31234A",
",  c #372553",
"<  c #3D2D57",
"1  c #181463",
"2  c #29276A",
"3  c #2C3260",
"4  c #2E2C71",
"5  c #353465",
"6  c #423879",
"7  c #03514B",
"8  c #0A4755",
"9  c #034E52",
"0  c #15665D",
"q  c #077358",
"w  c #0A665B",
"e  c #267D52",
"r  c #095265",
"t  c #314F6C",
"y  c #334776",
"u  c #057B63",
"i  c #127562",
"p  c #127C69",
"a  c #474658",
"s  c #4D427E",
"d  c #465A74",
"f  c #57556D",
"g  c #705C63",
"h  c #4A677B",
"j  c #08985F",
"k  c #249A56",
"l  c #21BB5C",
"z  c #21A858",
"x  c #0B8663",
"c  c #1A826D",
"v  c #11996C",
"b  c #148A78",
"n  c #17AA6B",
"m  c #17B469",
"M  c #19AA75",
"N  c #1DBB76",
"B  c #0EA366",
"V  c #2CAA70",
"C  c #26BA72",
"Z  c #2ABB6D",
"A  c #1AC46D",
"S  c #25C767",
"D  c #34CD6F",
"F  c #42E56B",
"G  c #51E467",
"H  c #73EE6B",
"J  c #77E965",
"K  c #6AE769",
"L  c #88EF6F",
"P  c #90EF6B",
"I  c #88EB76",
"U  c #97F578",
"Y  c #BBFE7C",
"T  c #A5FA75",
"R  c #3C3780",
"E  c #494682",
"W  c #504E91",
"Q  c #575B97",
"!  c #515B95",
"~  c #576199",
"^  c #676C9A",
"/  c #666396",
"(  c #4350B2",
")  c #5E73A7",
"_  c #5874B3",
"`  c #4F6CAB",
"'  c #6C7AA5",
"]  c #6874A9",
"[  c #687BAE",
"{  c #7B7AAB",
"}  c #6377B0",
"|  c #666BA2",
" . c #1B8897",
".. c #0AB28E",
"X. c #439F82",
"o. c #5C85BB",
"O. c #6881A6",
"+. c #7483AA",
"@. c #7588AB",
"#. c #7B8AAC",
"$. c #7784A7",
"%. c #7393AF",
"&. c #748AB3",
"*. c #7F8BB7",
"=. c #7D94B2",
"-. c #799BB9",
";. c #6394B6",
":. c #6EBBBC",
">. c #7EA4B9",
",. c #38D989",
"<. c #32CBAA",
"1. c #79EE82",
"2. c #5F95C7",
"3. c #759FC4",
"4. c #7A9BC7",
"5. c #7E93D0",
"6. c #699BCB",
"7. c #76A6C7",
"8. c #75B2CF",
"9. c #6EA6D7",
"0. c #4FC3C3",
"q. c #5FD7D0",
"w. c #46C9D3",
"e. c #78C8CA",
"r. c #6DC1D0",
"t. c #7BC4DF",
"y. c #75D7D5",
"u. c #69DAD1",
"i. c #76CEE0",
"p. c #828FBB",
"a. c #8299B3",
"s. c #8295BE",
"d. c #85A4BB",
"f. c #89A8BB",
"g. c #9FACBE",
"h. c #ACA6BA",
"j. c #9EF080",
"k. c #B2FB8A",
"l. c #BEF794",
"z. c #9DEAB5",
"x. c #C2FF94",
"c. c #DBFD99",
"v. c #DBFEAC",
"b. c #D1FEBC",
"n. c #8694CB",
"m. c #88ABC0",
"M. c #8BBBC9",
"N. c #89B3C8",
"B. c #92B6CB",
"V. c #95B5CB",
"C. c #89BED8",
"Z. c #9EB8DD",
"A. c #ACB1CD",
"S. c #B0BBDA",
"D. c #96BFEA",
"F. c #97C6CE",
"G. c #9BCDD5",
"H. c #97CDD9",
"J. c #97C9D4",
"K. c #8FD3D3",
"L. c #99D9D6",
"P. c #95D4DB",
"I. c #8BCBD2",
"U. c #ABCDDD",
"Y. c #A4DBDE",
"T. c #A6DAD8",
"R. c #ADE5DA",
"E. c #98DCE3",
"W. c #87D2E9",
"Q. c #A6D9E1",
"!. c #ACDEE2",
"~. c #ACD4E9",
"^. c #B3DDE6",
"/. c #B5C4E6",
"(. c #85E6E8",
"). c #ACE4E5",
"_. c #ABE8E7",
"`. c #A9E6EA",
"'. c #B4EBE3",
"]. c #B9E4EB",
"[. c #B5ECED",
"{. c #BAEDEE",
"}. c #B2E4EA",
"|. c #ACEDF9",
" X c #B4EFF3",
".X c #B9EFF4",
"XX c #A7F9F7",
"oX c #BDF3F4",
"OX c #D1F6C3",
"+X c #E1FFC1",
"@X c #EAFFDC",
"#X c #C8EFED",
"$X c #C7F4E9",
"%X c #CAEAFB",
"&X c #C7F7F6",
"*X c #DCFDF4",
"=X c #D5FBFC",
"-X c #DBFCFC",
";X c #D5F5F6",
":X c #DAE2F4",
">X c #F0EFF6",
",X c #E5FCFA",
"<X c #ECFCFD",
"1X c #E6F4F9",
"2X c #FCFEF7",
"3X c #F4FEFD",
"4X c #FEFFFE",
/* pixels */
"                                                                ",
"                                                                ",
"                                                                ",
"                                                                ",
"                                                                ",
"                        4 4X4X-X=X[.3X4X&                       ",
"                    * 4X*XR.I.R.L.4X' 0.|.D.                    ",
"                  4X$XT.T.#X'.N.K.4XO.O.$.) ` %                 ",
"              a 4X'.1X4X4X<X'.F.P.4X-.%.#.P.i.9.3               ",
"              4X:.;X4X4X4XG.H.!.J.F.[.}.=.`.C.! ` &             ",
"            1 =XT.,X4X4XY.Y.).- - t [.[.m.m.#.+.E 4.            ",
"          : *XL.,X4XF.).{.q H U b.u 0 ; Q.F.$.^ >.y 5.          ",
"          4Xe.T.4X4XM.&X,.I K 2Xv.m S u %X[.=.@.7.t.W.          ",
"          #X;.T.4XH.G.i Z v.4X2XOXOXk q 0 ].d.=.#.E 6.>         ",
"          E.I.3X;X[.$ j 2X4Xr n M i 4X@X; o [.).@.s 3X)         ",
"        4 _ m.3XM.^.z P L X.n n m v 8 c p 7 @ [.=./ 6 _         ",
"        2 2.&.3X).@ F J D $XS S A v 3Xb e i ; P.d.p.s _         ",
"        2 o.] !.}.M.z.@XF 4XD S S m 4Xw l C X E.a.1X/ `         ",
"          y.~ +.d.{.$ =  .4X+Xl.k.Y 4X..$ r ).).^ | Q 4.        ",
"          (.w.' -.{.oXX x = V j x B 2X8 p &._.M.,X*Xn.f         ",
"          <XW &X3Xa.d.oXM A 1.G H I 8 n . [.@.-.4X/.|.          ",
"            XXy H.a.d.[.oX9 b T c.j.N .  X).@.~.V.Z.-           ",
"            * ! -.Y.Y.f.B.[.<.k.x.b O [.N.+.U.{ :X X            ",
"              g.Q ~ G.V.B.].oXX N - [.`.s.*.S.A.A.>X            ",
"                <XQ { ] Q.B.B.Q.Q.[.=.+.S.3X=X&X%Xg             ",
"                  # } [ y.r.=X6.7.3.3.&.4X(._.&                 ",
"                    R 1Xe.q.u.-X^.8.`.XX=Xh.:                   ",
"                      < + ( 4X4X4X4X4X* 5                       ",
"                          , > d h d & ,                         ",
"                                                                ",
"                                                                ",
"                                                                "
};
