/* XPM */
static char *_e9aa22ba3e04154ad8189289096c181bB5IKCtSRz60X9VM[] = {
/* columns rows colors chars-per-pixel */
"32 32 6 1 ",
"  c None",
". c black",
"X c DimGray",
"o c SaddleBrown",
"O c #A37343",
"+ c gray72",
/* pixels */
"                                ",
"             .......            ",
"          ...X.XXX.X...         ",
"        ...XXXX.X.XXXX...       ",
"       .XXX.XXXX.XXXX.XXX.      ",
"      .XXXXX.........XXXXX.     ",
"     ..XXXX..OoooOoo..XXX.X.    ",
"    .XX.X..ooOoooOoooO...XXX.   ",
"    .XXX.OoooOoooOoooOoo.XXX.   ",
"   .XXX.oOoooOoooOoooOooo.XX..  ",
"   .XXX.oOoooOoooOoooOooo.X.X.  ",
"   ..X.ooOoooOoooOoooOoooO.XX.  ",
"  .XX..ooOoooOoooOoooOoooOo.XX. ",
"  .XX.oooOoooOoooOoooOoooOo.XX. ",
"  .XX.oooOoooOoooOoooOo.....XX. ",
"  ....oooOoooOoooOoooOo.+.+.... ",
"  .XX.oooOoooOoooOoooOo.....XX. ",
"  .XX.oooOoooOoooOoooOoooOo.XX. ",
"  .XX.oooOoooOoooOoooOoooOo.XX. ",
"  ....oo....oOoooOoooOoooOo.... ",
"  .XX.ooo..ooOoooOoooOoooOo.XX. ",
"  .XX.oo.Oo.oOoooOoooOoooOo.XX. ",
"  .XX.oo.Oo.oOoooOoooOoooOo.XX. ",
"  ....ooo..ooOoooOoooOoooOo.... ",
"  .XX.oooOoooOoooOoooOoooOo.XX. ",
"  .XX.oooOoooOoooOoooOo.....XX. ",
"  .XX.oooOoooOoooOoooOo.+.+.XX. ",
"  ....oooOoooOoooOoooOo........ ",
"  .XX.oooOoooOoooOoooOoooOo.XX. ",
"  .XX.oooOoooOoooOoooOoooOo.XX. ",
"  .XX.oooOoooOoooOoooOoooOo.XX. ",
"  ............................. "
};
