/* XPM */
static char *_cfa3fccb39049f58f05b81d9c3587e1g4fyXpHwg4k2yQyX[] = {
/* columns rows colors chars-per-pixel */
"32 32 37 1 ",
"  c None",
". c gray26",
"X c #434343",
"o c gray27",
"O c #464646",
"+ c #484848",
"@ c #494949",
"# c #4C4C4C",
"$ c gray30",
"% c #4E4E4E",
"& c gray31",
"* c #505050",
"= c #5A5A5A",
"- c #5B5B5B",
"; c gray36",
": c #5D5D5D",
"> c #5F5F5F",
", c #606060",
"< c gray38",
"1 c #626262",
"2 c gray39",
"3 c #646464",
"4 c #656565",
"5 c gray40",
"6 c #676767",
"7 c #686868",
"8 c DimGray",
"9 c #6A6A6A",
"0 c #6C6C6C",
"q c gray43",
"w c #6F6F6F",
"e c gray44",
"r c #717171",
"t c #727272",
"y c gray45",
"u c #747474",
"i c gray46",
/* pixels */
"                                ",
"                                ",
"                                ",
"                                ",
"                                ",
"                                ",
"                 eeee           ",
"             iiiq2222.          ",
"            iiii62222.          ",
"            iii62222#.          ",
"            q2e222222:.         ",
"            q6e66iie+:.         ",
"           iiiiqqeq:#2.         ",
"           iiii22q2#:2.         ",
"           e666228q8qq8i        ",
"           e22222q2222:o        ",
"           e2222222222-o        ",
"       iieqqq6622222222-+       ",
"      iii6228ii22222222-+       ",
"      iii6qq288#2222222-+       ",
"     iie82i2*22o2222222-+       ",
"     ie-+82.#222o22222-...      ",
"                                ",
"                                ",
"                                ",
"                                ",
"                                ",
"                                ",
"                                ",
"                                ",
"                                ",
"                                "
};
