/* XPM */
static char *ca8ec6da6ef44989d134f14106221e2dU0a6qAnGQv1LWy7k[] = {
/* columns rows colors chars-per-pixel */
"32 32 13 1 ",
"  c None",
". c black",
"X c gray17",
"o c #5D4D2B",
"O c #1E5476",
"+ c #956F47",
"@ c #AD7B58",
"# c #AA7D58",
"$ c #CBBD0B",
"% c #236DA0",
"& c #2BC9D2",
"* c #B4B4B4",
"= c #E8E6E2",
/* pixels */
"                                ",
"                                ",
"                                ",
"                                ",
"                                ",
"                                ",
"                                ",
"                                ",
"                                ",
"                                ",
"               ..X.             ",
"             ..XX.X..           ",
"            .XXXXXXX..          ",
"             .XXXX*XXX.         ",
"              .@@@***X.         ",
"              .@..+.**.         ",
"              .@&=.+.*.         ",
"              .@@@++...         ",
"              .@@@+...          ",
"               .@+OO%$.         ",
"                ..O%%%$.        ",
"               .=O%%.%%.        ",
"               .=O%O.%O.        ",
"               .=O%O.%O.        ",
"               .==O.O%.         ",
"                .o.#OO.         ",
"                .%.##.          ",
"                .%%...          ",
"                .o.oo.          ",
"                .o.oo.          ",
"               .o.ooo.          ",
"               .......          "
};
