/* XPM */
static char *_91749061b6d47a6e5c2c9c86c95a97alOPkPC5GQLdft3rY[] = {
/* columns rows colors chars-per-pixel */
"32 32 13 1 ",
"  c None",
". c black",
"X c gray17",
"o c #5D4D2B",
"O c #1E5476",
"+ c #956F47",
"@ c #AD7B58",
"# c #AA7D58",
"$ c #CBBD0B",
"% c #236DA0",
"& c #2BC9D2",
"* c #B4B4B4",
"= c #E8E6E2",
/* pixels */
"                                ",
"                                ",
"                                ",
"                                ",
"                                ",
"                                ",
"                                ",
"                                ",
"                                ",
"                                ",
"             .X..               ",
"           ..X.XX..             ",
"          ..XXXXXXX.            ",
"         .XXX*XXXX.             ",
"         .X***@@@.              ",
"         .**.+..@.              ",
"         .*.+.=&@.              ",
"         ...++@@@.              ",
"          ...+@@@.              ",
"         .$%OO+@.               ",
"        .$%%%O..                ",
"        .%%.%%O=.               ",
"        .O%.O%O=.               ",
"        .O%.O%O=.               ",
"         .%O.O==.               ",
"         .OO#.o.                ",
"          .##.%.                ",
"          ...%%.                ",
"          .oo.o.                ",
"          .oo.o.                ",
"          .ooo.o.               ",
"          .......               "
};
